<?xml version="1.0" encoding="utf-8"?>
<!-- Generator: Adobe Illustrator 23.0.1, SVG Export Plug-In . SVG Version: 6.00 Build 0)  -->
<svg version="1.1" id="Capa_1" xmlns="http://www.w3.org/2000/svg" xmlns:xlink="http://www.w3.org/1999/xlink" x="0px" y="0px"
	 viewBox="0 0 358.6 358.6" style="enable-background:new 0 0 358.6 358.6;" xml:space="preserve">
<style type="text/css">
	.st0{fill:#396AE7;stroke:#FFFFFF;stroke-miterlimit:10;}
</style>
<g>
	<g>
		<path class="st0" d="M347,337c-4.2-4.3-12.1-13.3-18.5-25.7c-12.1-23.4-13.8-48.1-5.2-73.3c8.9-26,13.2-50.9,12.9-74.2l0-0.9
			C336.1,73.1,263,0,173.2,0C83.3,0,10.2,73.1,10.2,162.9c0,89.8,73.1,162.9,162.9,162.9c44.9,0,86.7-17.9,117.8-50.4
			c1,17,5.6,33.6,13.9,49.3c8.4,16,18.6,27.1,23.9,32.4c0.9,0.9,2.2,1.4,3.5,1.4c0.1,0,0.1,0,0.2,0c1.4-0.1,2.7-0.7,3.6-1.8
			l11.1-13.2C348.9,341.7,348.8,338.8,347,337z M103.9,122.9c-4.7,8.2-13.6,13.3-23.1,13.3c-4.7,0-9.3-1.2-13.3-3.6
			c-6.2-3.6-10.6-9.3-12.4-16.2c-1.8-6.9-0.9-14.1,2.7-20.2c4.7-8.2,13.6-13.3,23.1-13.3c4.7,0,9.3,1.2,13.3,3.6
			C106.9,93.9,111.2,110.2,103.9,122.9z M55.1,209.3c1.8-6.9,6.3-12.6,12.4-16.2c4.1-2.3,8.7-3.6,13.3-3.6c9.5,0,18.4,5.1,23.1,13.3
			c7.4,12.7,3,29.1-9.8,36.4c-4.1,2.3-8.7,3.6-13.3,3.6c-9.5,0-18.4-5.1-23.1-13.3C54.2,223.4,53.2,216.2,55.1,209.3z M173.2,242.9
			L173.2,242.9c7.1,0,13.8,2.8,18.9,7.8c5,5,7.8,11.7,7.8,18.9c0,14.7-12,26.7-26.7,26.7c-14.7,0-26.7-12-26.7-26.7
			C146.5,254.9,158.5,242.9,173.2,242.9z M173.2,82.9c-14.7,0-26.7-12-26.7-26.7c0-14.7,12-26.7,26.7-26.7c14.7,0,26.7,12,26.7,26.7
			C199.8,71,187.9,82.9,173.2,82.9z M173.2,128.1c19.2,0,34.8,15.6,34.8,34.8c0,19.2-15.6,34.8-34.8,34.8
			c-19.2,0-34.8-15.6-34.8-34.8C138.4,143.7,154,128.1,173.2,128.1z M278.8,132.7c-4.1,2.3-8.7,3.6-13.3,3.6
			c-9.5,0-18.4-5.1-23.1-13.3c-7.4-12.7-3-29.1,9.8-36.4c4.1-2.3,8.7-3.6,13.3-3.6c9.5,0,18.4,5.1,23.1,13.3
			C296,109,291.6,125.3,278.8,132.7z M242.4,202.9c4.7-8.2,13.6-13.3,23.1-13.3c4.7,0,9.3,1.2,13.3,3.6c6.2,3.6,10.6,9.3,12.4,16.2
			c1.8,6.9,0.9,14.1-2.6,20.2c-4.7,8.2-13.6,13.3-23.1,13.3c-4.6,0-9.3-1.2-13.3-3.6C239.5,232,235.1,215.6,242.4,202.9z"/>
	</g>
</g>
</svg>
